<svg id="logo" width="733" height="104" viewBox="0 0 733 104" xmlns="http://www.w3.org/2000/svg">
  <path d="M17.0909 99H5.27274L39.4546 5.90909H51.0909L85.2727 99H73.4546L45.6364 20.6364H44.9091L17.0909 99ZM21.4546 62.6364H69.0909V72.6364H21.4546V62.6364Z" stroke="black" fill="transparent" stroke-width="6" mask="url(#path-1-outside-1_4_7)" />
  <path d="M109.045 5.90909V99H98.3182V5.90909H109.045Z" stroke="black" fill="transparent" stroke-width="6" mask="url(#path-1-outside-1_4_7)" />
  <path d="M157.966 100.455C151.239 100.455 145.436 98.9697 140.557 96C135.708 93 131.966 88.8182 129.33 83.4545C126.723 78.0606 125.42 71.7879 125.42 64.6364C125.42 57.4849 126.723 51.1818 129.33 45.7273C131.966 40.2424 135.633 35.9697 140.33 32.9091C145.057 29.8182 150.572 28.2727 156.875 28.2727C160.511 28.2727 164.102 28.8788 167.648 30.0909C171.193 31.303 174.42 33.2727 177.33 36C180.239 38.697 182.557 42.2727 184.284 46.7273C186.011 51.1818 186.875 56.6667 186.875 63.1818V67.7273H133.057V58.4545H175.966C175.966 54.5151 175.178 51 173.602 47.9091C172.057 44.8182 169.845 42.3788 166.966 40.5909C164.117 38.803 160.754 37.9091 156.875 37.9091C152.602 37.9091 148.905 38.9697 145.784 41.0909C142.693 43.1818 140.314 45.9091 138.648 49.2727C136.981 52.6364 136.148 56.2424 136.148 60.0909V66.2727C136.148 71.5455 137.057 76.0151 138.875 79.6818C140.724 83.3182 143.284 86.0909 146.557 88C149.83 89.8788 153.633 90.8182 157.966 90.8182C160.784 90.8182 163.33 90.4242 165.602 89.6364C167.905 88.8182 169.89 87.6061 171.557 86C173.224 84.3636 174.511 82.3333 175.42 79.9091L185.784 82.8182C184.693 86.3333 182.86 89.4242 180.284 92.0909C177.708 94.7273 174.527 96.7879 170.739 98.2727C166.951 99.7273 162.693 100.455 157.966 100.455Z" stroke="black" fill="transparent" stroke-width="6" mask="url(#path-1-outside-1_4_7)" />
  <path d="M213.193 73.5455L213.011 60.2727H215.193L245.739 29.1818H259.011L226.466 62.0909H225.557L213.193 73.5455ZM203.193 99V5.90909H213.92V99H203.193ZM247.557 99L220.284 64.4545L227.92 57L261.193 99H247.557Z" stroke="black" fill="transparent" stroke-width="6" mask="url(#path-1-outside-1_4_7)" />
  <path d="M270.818 99V90.8182L310.455 39.9091V39.1818H272.091V29.1818H324.273V37.7273L285.727 88.2727V89H325.545V99H270.818Z" stroke="black" fill="transparent" stroke-width="6" mask="url(#path-1-outside-1_4_7)" />
  <path d="M362.614 100.636C358.189 100.636 354.174 99.803 350.568 98.1364C346.962 96.4394 344.098 94 341.977 90.8182C339.856 87.6061 338.795 83.7273 338.795 79.1818C338.795 75.1818 339.583 71.9394 341.159 69.4545C342.735 66.9394 344.841 64.9697 347.477 63.5455C350.114 62.1212 353.023 61.0606 356.205 60.3636C359.417 59.6364 362.644 59.0606 365.886 58.6364C370.129 58.0909 373.568 57.6818 376.205 57.4091C378.871 57.1061 380.811 56.6061 382.023 55.9091C383.265 55.2121 383.886 54 383.886 52.2727V51.9091C383.886 47.4242 382.659 43.9394 380.205 41.4545C377.78 38.9697 374.098 37.7273 369.159 37.7273C364.038 37.7273 360.023 38.8485 357.114 41.0909C354.205 43.3333 352.159 45.7273 350.977 48.2727L340.795 44.6364C342.614 40.3939 345.038 37.0909 348.068 34.7273C351.129 32.3333 354.462 30.6667 358.068 29.7273C361.705 28.7576 365.28 28.2727 368.795 28.2727C371.038 28.2727 373.614 28.5455 376.523 29.0909C379.462 29.6061 382.295 30.6818 385.023 32.3182C387.78 33.9545 390.068 36.4242 391.886 39.7273C393.705 43.0303 394.614 47.4545 394.614 53V99H383.886V89.5455H383.341C382.614 91.0606 381.402 92.6818 379.705 94.4091C378.008 96.1364 375.75 97.6061 372.932 98.8182C370.114 100.03 366.674 100.636 362.614 100.636ZM364.25 91C368.492 91 372.068 90.1667 374.977 88.5C377.917 86.8333 380.129 84.6818 381.614 82.0455C383.129 79.4091 383.886 76.6364 383.886 73.7273V63.9091C383.432 64.4545 382.432 64.9545 380.886 65.4091C379.371 65.8333 377.614 66.2121 375.614 66.5455C373.644 66.8485 371.72 67.1212 369.841 67.3636C367.992 67.5758 366.492 67.7576 365.341 67.9091C362.553 68.2727 359.947 68.8636 357.523 69.6818C355.129 70.4697 353.189 71.6667 351.705 73.2727C350.25 74.8485 349.523 77 349.523 79.7273C349.523 83.4545 350.902 86.2727 353.659 88.1818C356.447 90.0606 359.977 91 364.25 91Z" stroke="black" fill="transparent" stroke-width="6" mask="url(#path-1-outside-1_4_7)" />
  <path d="M424.92 57V99H414.193V29.1818H424.557V40.0909H425.466C427.102 36.5455 429.587 33.697 432.92 31.5455C436.254 29.3636 440.557 28.2727 445.83 28.2727C450.557 28.2727 454.693 29.2424 458.239 31.1818C461.784 33.0909 464.542 36 466.511 39.9091C468.481 43.7879 469.466 48.697 469.466 54.6364V99H458.739V55.3636C458.739 49.8788 457.314 45.6061 454.466 42.5455C451.617 39.4545 447.708 37.9091 442.739 37.9091C439.314 37.9091 436.254 38.6515 433.557 40.1364C430.89 41.6212 428.784 43.7879 427.239 46.6364C425.693 49.4848 424.92 52.9394 424.92 57Z" stroke="black" fill="transparent" stroke-width="6" mask="url(#path-1-outside-1_4_7)" />
  <path d="M515.432 100.455C509.614 100.455 504.477 98.9848 500.023 96.0455C495.568 93.0758 492.083 88.8939 489.568 83.5C487.053 78.0758 485.795 71.6667 485.795 64.2727C485.795 56.9394 487.053 50.5758 489.568 45.1818C492.083 39.7879 495.583 35.6212 500.068 32.6818C504.553 29.7424 509.735 28.2727 515.614 28.2727C520.159 28.2727 523.75 29.0303 526.386 30.5455C529.053 32.0303 531.083 33.7273 532.477 35.6364C533.902 37.5151 535.008 39.0606 535.796 40.2727H536.705V5.90909H547.432V99H537.068V88.2727H535.796C535.008 89.5455 533.886 91.1515 532.432 93.0909C530.977 95 528.902 96.7121 526.205 98.2273C523.508 99.7121 519.917 100.455 515.432 100.455ZM516.886 90.8182C521.189 90.8182 524.826 89.697 527.796 87.4545C530.765 85.1818 533.023 82.0455 534.568 78.0455C536.114 74.0152 536.886 69.3636 536.886 64.0909C536.886 58.8788 536.129 54.3182 534.614 50.4091C533.099 46.4697 530.856 43.4091 527.886 41.2273C524.917 39.0151 521.25 37.9091 516.886 37.9091C512.341 37.9091 508.553 39.0758 505.523 41.4091C502.523 43.7121 500.265 46.8485 498.75 50.8182C497.265 54.7576 496.523 59.1818 496.523 64.0909C496.523 69.0606 497.28 73.5758 498.795 77.6364C500.341 81.6667 502.614 84.8788 505.614 87.2727C508.644 89.6364 512.402 90.8182 516.886 90.8182Z" stroke="black" fill="transparent" stroke-width="6" mask="url(#path-1-outside-1_4_7)" />
  <path d="M568.568 99V29.1818H578.932V39.7273H579.659C580.932 36.2727 583.235 33.4697 586.568 31.3182C589.902 29.1667 593.659 28.0909 597.841 28.0909C598.629 28.0909 599.614 28.1061 600.796 28.1364C601.977 28.1667 602.871 28.2121 603.477 28.2727V39.1818C603.114 39.0909 602.28 38.9545 600.977 38.7727C599.705 38.5606 598.356 38.4545 596.932 38.4545C593.538 38.4545 590.508 39.1667 587.841 40.5909C585.205 41.9849 583.114 43.9242 581.568 46.4091C580.053 48.8636 579.296 51.6667 579.296 54.8182V99H568.568Z" stroke="black" fill="transparent" stroke-width="6" mask="url(#path-1-outside-1_4_7)" />
  <path d="M616.193 99V29.1818H626.921V99H616.193ZM621.648 17.5455C619.557 17.5455 617.754 16.8333 616.239 15.4091C614.754 13.9848 614.011 12.2727 614.011 10.2727C614.011 8.27273 614.754 6.56061 616.239 5.13636C617.754 3.71212 619.557 3 621.648 3C623.739 3 625.527 3.71212 627.011 5.13636C628.527 6.56061 629.284 8.27273 629.284 10.2727C629.284 12.2727 628.527 13.9848 627.011 15.4091C625.527 16.8333 623.739 17.5455 621.648 17.5455Z" stroke="black" fill="transparent" stroke-width="6" mask="url(#path-1-outside-1_4_7)" />
  <path d="M646.568 99V29.1818H657.296V99H646.568ZM652.023 17.5455C649.932 17.5455 648.129 16.8333 646.614 15.4091C645.129 13.9848 644.386 12.2727 644.386 10.2727C644.386 8.27273 645.129 6.56061 646.614 5.13636C648.129 3.71212 649.932 3 652.023 3C654.114 3 655.902 3.71212 657.386 5.13636C658.902 6.56061 659.659 8.27273 659.659 10.2727C659.659 12.2727 658.902 13.9848 657.386 15.4091C655.902 16.8333 654.114 17.5455 652.023 17.5455Z" stroke="black" fill="transparent" stroke-width="6" mask="url(#path-1-outside-1_4_7)" />
  <path d="M697.489 100.636C693.064 100.636 689.049 99.803 685.443 98.1364C681.837 96.4394 678.974 94 676.852 90.8182C674.731 87.6061 673.671 83.7273 673.671 79.1818C673.671 75.1818 674.458 71.9394 676.034 69.4545C677.61 66.9394 679.716 64.9697 682.352 63.5455C684.989 62.1212 687.898 61.0606 691.08 60.3636C694.292 59.6364 697.519 59.0606 700.761 58.6364C705.004 58.0909 708.443 57.6818 711.08 57.4091C713.746 57.1061 715.686 56.6061 716.898 55.9091C718.14 55.2121 718.761 54 718.761 52.2727V51.9091C718.761 47.4242 717.534 43.9394 715.08 41.4545C712.655 38.9697 708.974 37.7273 704.034 37.7273C698.913 37.7273 694.898 38.8485 691.989 41.0909C689.08 43.3333 687.034 45.7273 685.852 48.2727L675.671 44.6364C677.489 40.3939 679.913 37.0909 682.943 34.7273C686.004 32.3333 689.337 30.6667 692.943 29.7273C696.58 28.7576 700.155 28.2727 703.671 28.2727C705.913 28.2727 708.489 28.5455 711.398 29.0909C714.337 29.6061 717.17 30.6818 719.898 32.3182C722.655 33.9545 724.943 36.4242 726.761 39.7273C728.58 43.0303 729.489 47.4545 729.489 53V99H718.761V89.5455H718.216C717.489 91.0606 716.277 92.6818 714.58 94.4091C712.883 96.1364 710.625 97.6061 707.807 98.8182C704.989 100.03 701.549 100.636 697.489 100.636ZM699.125 91C703.367 91 706.943 90.1667 709.852 88.5C712.792 86.8333 715.004 84.6818 716.489 82.0455C718.004 79.4091 718.761 76.6364 718.761 73.7273V63.9091C718.307 64.4545 717.307 64.9545 715.761 65.4091C714.246 65.8333 712.489 66.2121 710.489 66.5455C708.519 66.8485 706.595 67.1212 704.716 67.3636C702.867 67.5758 701.367 67.7576 700.216 67.9091C697.428 68.2727 694.822 68.8636 692.398 69.6818C690.004 70.4697 688.064 71.6667 686.58 73.2727C685.125 74.8485 684.398 77 684.398 79.7273C684.398 83.4545 685.777 86.2727 688.534 88.1818C691.322 90.0606 694.852 91 699.125 91Z" stroke="black" fill="transparent" stroke-width="6" mask="url(#path-1-outside-1_4_7)" />
<style>
  * {
    margin: 0;
    padding: 0;
    box-sizing: border-box;
  }
  
  body {
    width: 100%;
    height: 100vh;
  }
  
  #logo {
    position: absolute;
    top: 50%;
    left: 50%;
    transform: translate(-50%, -50%);
  }
  
  #logo path:nth-child(1) {
    stroke-dasharray: 515.9180908203125px;
    stroke-dashoffset: 515.9180908203125px;
    animation: line-animation 2s ease forwards;
  }
  #logo path:nth-child(2) {
    stroke-dasharray: 207.63543701171875px;
    stroke-dashoffset: 207.63543701171875px;
    animation: line-animation 2s ease forwards 300ms;
  }
  #logo path:nth-child(3) {
    stroke-dasharray: 448.2241516113281px;
    stroke-dashoffset: 448.2241516113281px;
    animation: line-animation 2s ease forwards 600ms;
  }
  #logo path:nth-child(4) {
    stroke-dasharray: 465.9004211425781px;
    stroke-dashoffset: 465.9004211425781px;
    animation: line-animation 2s ease forwards 900ms;
  }
  #logo path:nth-child(5) {
    stroke-dasharray: 351.35888671875px;
    stroke-dashoffset: 351.35888671875px;
    animation: line-animation 2s ease forwards 1200ms;
  }
  #logo path:nth-child(6) {
    stroke-dasharray: 419.63916015625px;
    stroke-dashoffset: 419.63916015625px;
    animation: line-animation 2s ease forwards 1500ms;
  }
  #logo path:nth-child(7) {
    stroke-dasharray: 365.03326416015625px;
    stroke-dashoffset: 365.03326416015625px;
    animation: line-animation 2s ease forwards 1800ms;
  }
  #logo path:nth-child(8) {
    stroke-dasharray: 466.48748779296875px;
    stroke-dashoffset: 466.48748779296875px;
    animation: line-animation 2s ease forwards 2100ms;
  }
  #logo path:nth-child(9) {
    stroke-dasharray: 219.4051513671875px;
    stroke-dashoffset: 219.4051513671875px;
    animation: line-animation 2s ease forwards 2400ms;
  }
  #logo path:nth-child(10) {
    stroke-dasharray: 207.97483825683594px;
    stroke-dashoffset: 207.97483825683594px;
    animation: line-animation 2s ease forwards 2700ms;
  }
  #logo path:nth-child(11) {
    stroke-dasharray: 207.97483825683594px;
    stroke-dashoffset: 207.97483825683594px;
    animation: line-animation 2s ease forwards 3000ms;
  }
  #logo path:nth-child(12) {
    stroke-dasharray: 419.6370849609375px;
    stroke-dashoffset: 419.6370849609375px;
    animation: line-animation 2s ease forwards 3300ms;
  }
  
  @keyframes line-animation {
    from {
      fill:transparent;
    }
    to {
      stroke-dashoffset: 0;
      fill: black;
    }
  }
</style>

</svg>